<svg xmlns="http://www.w3.org/2000/svg" width="96.678" height="104" fill="none"><defs><clipPath id="a" class="frame-clip frame-clip-def"><rect width="96.678" height="104" rx="0" ry="0"/></clipPath></defs><g class="frame-container-wrapper"><g class="frame-container-blur"><g class="frame-container-shadows" clip-path="url(#a)"><g class="fills"><rect width="96.678" height="104" class="frame-background" rx="0" ry="0"/></g><g class="frame-children" style="fill:#000"><path d="M40.49 88q.117-1.062.354-2.3.236-1.238.708-2.358 1.534-.118 2.302-.648.826-.53 1.24-2.005.473-1.474 1.003-4.481l3.13-17.924q.412-2.358.294-3.537-.117-1.18-.944-1.651-.769-.472-2.302-.708-.414-2.062-.118-4.599l3.542.118q1.71.06 3.364.06h3.306q2.834 0 5.844-.06 3.07-.118 7.025-.118 6.552 0 9.386 3.892 2.892 3.891 1.712 10.907-.65 3.656-2.893 6.545-2.184 2.83-5.785 4.422-3.542 1.592-8.323 1.592-.827 0-1.594-.118a4.6 4.6 0 0 1-1.299-.413q-.06-.825.177-2.181.236-1.356.59-2.123.12.06.296.118h.708q2.067 0 4.132-2.064 2.067-2.063 2.775-6.014.825-4.421-.413-7.193-1.181-2.77-4.428-2.77-.767 0-1.416.176-.591.118-1.358.472l.531-.885-4.25 24.646q-.414 2.535-.236 3.832.177 1.297 1.357 1.887 1.18.53 3.72.884.236 1.12.236 2.3 0 1.12-.119 2.3a190 190 0 0 0-5.253-.178H45.802q-2.893.06-5.312.177" class="fills" style="fill:#1a237e;fill-opacity:1"/><path d="M40.116 16q4.014 0 7.379.766 3.364.708 5.726 2.241-.591 1.828-1.122 4.363a84 84 0 0 0-.767 4.717q-1.359.59-2.893.766-1.535.119-3.01-.118.235-3.006-.296-4.775-.472-1.829-1.77-2.595-1.299-.765-3.484-.766-3.246 0-5.607 2.24-2.362 2.182-3.838 5.72a34.7 34.7 0 0 0-2.184 7.37q-.59 3.596-.531 6.603.118 2.947.886 5.13.767 2.181 2.184 3.36 1.475 1.18 3.542 1.18 1.002 0 1.534-.118a6.7 6.7 0 0 0 1.063-.413q.472-.295.767-.767.355-.471.59-1.356.237-.885.473-2.299.413-2.3.177-3.479-.177-1.179-1.063-1.65-.885-.531-2.597-.767a18 18 0 0 1-.236-2.182q0-1.238.177-2.417 2.184.118 4.545.177h8.796q2.184-.06 4.782-.177 0 1.12-.177 2.3a10.7 10.7 0 0 1-.65 2.299q-1.062.118-1.712.53-.59.354-1.062 1.77-.413 1.415-1.004 4.775-.177 1.474-.118 2.476.06.945.354 2.3-2.892 1.592-6.965 2.653a32.4 32.4 0 0 1-8.324 1.061q-6.434 0-10.685-2.77-4.25-2.831-5.962-7.784t-.59-11.379q.826-4.835 3.07-8.372 2.301-3.597 5.549-5.955a22.9 22.9 0 0 1 7.083-3.479A27.4 27.4 0 0 1 40.116 16" class="fills" style="fill:#1a237e;fill-opacity:1"/></g></g></g></g></svg>